<svg id="Слой_1" data-name="Слой 1" xmlns="http://www.w3.org/2000/svg" viewBox="0 0 32 32"><defs><style>.cls-1{fill:#d0d0d0;}</style></defs><path class="cls-1" d="M16,14.64,17.36,16l2,2A1,1,0,0,1,18,19.39l-2-2L14.64,16l-2-2A1,1,0,0,1,14,12.61Z" transform="translate(0 0)"/><path class="cls-1" d="M17.36,16,16,17.36l-2,2A1,1,0,0,1,12.61,18l2-2L16,14.64l2-2A1,1,0,0,1,19.39,14Z" transform="translate(0 0)"/><path class="cls-1" d="M16,1A15,15,0,1,1,5.39,5.39,14.93,14.93,0,0,1,16,1m0-1A16,16,0,1,0,27.31,4.69,15.92,15.92,0,0,0,16,0Z" transform="translate(0 0)"/></svg>