<svg id="Слой_1" data-name="Слой 1" xmlns="http://www.w3.org/2000/svg" viewBox="0 0 300 255"><defs><style>.cls-1{fill:#1c1c1e;}.cls-2{fill:none;stroke:#dfdfdf;stroke-linecap:round;stroke-linejoin:round;stroke-width:5px;}.cls-3{fill:#454549;}.cls-4{fill:#d37c59;}.cls-5{fill:#599799;}.cls-6{fill:#fcc486;}.cls-7{fill:#54abaf;}.cls-8{fill:#fed385;}.cls-9{fill:#de8e68;}.cls-10{fill:#fed892;}.cls-11{fill:#ed5137;}</style></defs><path class="cls-1" d="M213,20.13c31,7.68,56.56,41.32,56.16,74.49s-26.69,65.72-48.71,97.11S181,253.32,158.76,254.92s-49.06-25.47-71.27-43.41-39.88-26.78-55-42.54S4.63,130.5,7.59,110.17s21.56-38.26,41-48,39.8-11.56,68.26-21.55S181.92,12.4,213,20.13Z"/><path class="cls-2" d="M197.28,173.63,156.71,91.05c-1.24-.75-6.21-4-6.21-4"/><path class="cls-2" d="M153.8,97.58c-.49-1.65-1.94-5-1.94-5-.89-.06-7.07-3.34-7.07-3.34"/><path class="cls-2" d="M143,89.5l19.22-8.09"/><path class="cls-3" d="M4.94,215.65,0,220.35l11.86,16L15.53,233,9.88,218.77Z"/><path class="cls-3" d="M100.72,201l-4.08,7.76L106.78,225l4.27-1.13-2.8-21.25Z"/><path class="cls-4" d="M147,91.05c3.33,0,6-2.08,6-4.65s-2.71-4.64-6-4.64-6,2.08-6,4.64S143.62,91.05,147,91.05Z"/><path class="cls-5" d="M66.4,91.31C63.69,95.31,4,216.12,4,216.12l6.75,4.25,78.74-87.86Z"/><path class="cls-4" d="M117.81,62c1.55,1.37,6.1,6.69,7.58,7.66s18.53,11.92,21.73,12.89-3.6,3.85-3.6,3.85-22.2-5.08-23.84-6.21S108.32,71,108.32,68.82,117.81,62,117.81,62Z"/><path class="cls-6" d="M104.81,51.59c5-5.54,14.62,7.6,14.41,9.53s-7,10-11.39,10C106.54,71.16,101.32,55.48,104.81,51.59Z"/><path class="cls-7" d="M65.64,92.52c-1.17,1.6-6.21,14.4-6.21,18.8,0,30,43.37,37.78,49.6,37.78-.9,4.18-10.44,51.74-10,52.79s8.37,3.17,10,2.9c6.21-3.49,26.24-52,24.74-58.89-2.12-9.67-35.3-37.94-40.09-40.76S65.64,92.52,65.64,92.52Z"/><path class="cls-8" d="M94.29,39.19c33.39,0,7.52,64.71,1.65,68.21-3.88,2.31-27.93-6.48-30.51-15.29C64.55,89.09,75.84,39.19,94.29,39.19Z"/><path class="cls-9" d="M141.87,93.23c3.33,0,6-2.08,6-4.64s-2.7-4.64-6-4.64-6,2.08-6,4.64S138.54,93.23,141.87,93.23Z"/><path class="cls-9" d="M83.63,69.07c.08,3.26,1.14,18.24,2.46,18.69,15.9,5.47,43.44,3.06,48.2,2.73s7.8-3.78,7.57-4.6-15.2-7.1-41.16-7.84c-.48-3,.67-12.16-.52-13S83.63,69.07,83.63,69.07Z"/><path class="cls-10" d="M88.05,42c13.81-2.92,16.29,23.67,15,25.63s-18.93,4.73-21.23,3S77.58,44.17,88.05,42Z"/><path class="cls-4" d="M97.45,22.66c-.64,2.5-5,16.84-4.71,17.6S99,44.37,101.28,44c.08-1.09,1.06-6.94,3-10.45S97.45,22.66,97.45,22.66Z"/><path class="cls-9" d="M115.14,22.73c.75-7.62-2.63-14.22-7.55-14.73s-9.5,5.25-10.25,12.88S100,35.1,104.89,35.61,114.39,30.36,115.14,22.73Z"/><path class="cls-11" d="M96.48,22.66c-1-.58-2.94-4-2.94-7.12,0-4.93,4.77-7.74,8-9.2C104,5.22,106,0,111.56,0c4.42,0,4.72,4.59,6.75,4.76,5.26.46,8.22.66,8.22,4.61,0,2.9-3.61,10.79-11,10.79a22.38,22.38,0,0,0-1.27-6.84c-4.42.23-8,6.08-14.15,6.06C98.83,19.36,96.48,22.66,96.48,22.66Z"/><path class="cls-9" d="M98.8,25.12c1.5,0,2.72-1.54,2.72-3.43s-1.22-3.43-2.72-3.43-2.72,1.54-2.72,3.43S97.3,25.12,98.8,25.12Z"/><path class="cls-2" d="M294.85,204.79H168.11V176.44c6.93-.63,105.47-10.23,105.47-10.23V104.57l-119.78-7,14.31,78.87"/><path class="cls-2" d="M178.3,220.46a6.07,6.07,0,1,0-5.88-6.07A6,6,0,0,0,178.3,220.46Z"/><path class="cls-2" d="M293.15,220.46a6.07,6.07,0,1,0-5.88-6.07A6,6,0,0,0,293.15,220.46Z"/><path class="cls-2" d="M158.48,123.35h115.1"/><path class="cls-2" d="M161.66,140.88H273.58"/><path class="cls-2" d="M133.29,93.59,143,89.5"/><path class="cls-2" d="M171.4,140.88c-1.26-3.68-14.64-43.13-14.64-43.13"/></svg>